@startuml
class "AddScoped`1"<T> {
}
class AccountController {
    + Index() : IActionResult
    + Login() : IActionResult
    + Login(user:UserEntity) : IActionResult
    + Logout() : IActionResult
    + Logout(btn_action:string) : IActionResult
    + Menu() : IActionResult
    + Menu(btn_action:string) : IActionResult
}
Controller <|-- AccountController
class DemoController {
    + DemoController()
    + Index() : IActionResult
    + LicenseMenu() : IActionResult
    + LicenseMenu(btn_action:string, emp_cd:string) : IActionResult
    + EmployeeInsert() : IActionResult
    + EmployeeInsert(entity:EmployeeEntity) : IActionResult
    + Insert() : IActionResult
    + Insert(entity:GetLicenseEntity) : IActionResult
    + List() : IActionResult
    + List(btn_action:string, license_cd:string[]) : IActionResult
    + Alert() : IActionResult
    + Alert(entities:List<GetLicenseEntity>) : IActionResult
}
class TempKeys <<static>> {
    + <<const>> CreateEmployee : string = "createEmployee"
    + <<const>> DeleteLicense : string = "deleteLicense"
    + <<const>> TargetEmpCd : string = "targetEmpCd"
}
Controller <|-- DemoController
DemoController --> "_employeeService" DemoEmployeeService
DemoController --> "_licenseService" DemoGetLicenseService
DemoController +-- TempKeys
class EmployeeController {
    + Index() : IActionResult
    + List() : IActionResult
    + List(empcd:List<string>, btn_action:string) : IActionResult
    + Insert() : IActionResult
    + Insert(employee:EmployeeEntity, btn_action:string) : IActionResult
    + Alert() : IActionResult
    + Alert(deleteEmp:List<EmployeeEntity>, btn_action:string) : IActionResult
    + Update() : IActionResult
    + Update(employee:EmployeeEntity, btn_action:string) : IActionResult
}
Controller <|-- EmployeeController
class HomeController {
    + HomeController(logger:ILogger<HomeController>)
    + Index() : IActionResult
    + Privacy() : IActionResult
    + Error() : IActionResult
}
class "ILogger`1"<T> {
}
Controller <|-- HomeController
HomeController --> "_logger<HomeController>" "ILogger`1"
class LicenseController {
    + Index() : IActionResult
    + LicenseMenu() : IActionResult
    + LicenseMenu(btn_action:string) : IActionResult
    + Insert() : IActionResult
    + Insert(btn_action:string) : IActionResult
    + List() : IActionResult
    + List(btn_action:string) : IActionResult
    + Alert() : IActionResult
    + Alert(btn_action:string) : IActionResult
}
Controller <|-- LicenseController
class ResultController {
    + Index() : IActionResult
}
Controller <|-- ResultController
class SessionCheckAttribute {
    + <<override>> OnActionExecuting(context:ActionExecutingContext) : void
}
ActionFilterAttribute <|-- SessionCheckAttribute
class ErrorViewModel {
    + RequestId : string? <<get>> <<set>>
    + ShowRequestId : bool <<get>>
}
class ActionValues <<static>> {
    + <<const>> Logout : string = "logout"
    + <<const>> Insert : string = "insert"
    + <<const>> List : string = "list"
    + <<const>> License : string = "license"
    + <<const>> Alert : string = "alert"
    + <<const>> Demo : string = "Demo"
}
class DbConstants <<static>> {
    + <<const>> EmpDbConnection : string = "empdb"
}
class SessionKeys <<static>> {
    + <<const>> UserId : string = "UserId"
}
DbConstants +-- SessionKeys
class ResultConstants <<static>> {
}
class TempDataKeys <<static>> {
    + <<const>> ViewTitle : string = "ViewTitle"
    + <<const>> Msg : string = "Msg"
    + <<const>> Caption : string = "Caption"
    + <<const>> ButtonView : string = "ButtonView"
}
ResultConstants +-- TempDataKeys
class AccountDao {
    + AccountDao()
    + <<override>> Find(pkeys:object[]) : UserEntity
    + <<override>> Insert(entity:UserEntity) : int
    + <<override>> Update(entity:UserEntity) : int
    + <<override>> Delete(entity:UserEntity) : int
}
class "BaseDao`1"<T> {
}
"BaseDao`1" "<UserEntity>" <|-- AccountDao
class DemoGetLicenseDao {
    + DemoGetLicenseDao()
    + <<override>> Find(pkeys:object[]) : GetLicenseEntity
    + FindByEmpCd(empCd:string) : List<GetLicenseEntity>
    + <<override>> Insert(entity:GetLicenseEntity) : int
    + <<override>> Update(entity:GetLicenseEntity) : int
    + <<override>> Delete(entity:GetLicenseEntity) : int
}
class DemoEmployeeDao {
    + DemoEmployeeDao()
    + <<override>> Find(pkeys:object[]) : EmployeeEntity
    + FindAll() : List<EmployeeEntity>
    + FindAllForLicenseMenu() : List<LicenseMenuRowViewModel>
    + <<override>> Insert(entity:EmployeeEntity) : int
    + <<override>> Update(entity:EmployeeEntity) : int
    + <<override>> Delete(entity:EmployeeEntity) : int
}
class "BaseDao`1"<T> {
}
"BaseDao`1" "<GetLicenseEntity>" <|-- DemoGetLicenseDao
"BaseDao`1" "<EmployeeEntity>" <|-- DemoEmployeeDao
class EmployeeDao {
    + EmployeeDao()
    + <<override>> Find(pkeys:object[]) : EmployeeEntity
    + <<override>> Insert(entity:EmployeeEntity) : int
    + <<override>> Update(entity:EmployeeEntity) : int
    + <<override>> Delete(entity:EmployeeEntity) : int
    + FindAll() : List<EmployeeEntity>
    + Exists(empcd:string) : bool
}
class "BaseDao`1"<T> {
}
"BaseDao`1" "<EmployeeEntity>" <|-- EmployeeDao
class GenderDao {
    + GenderDao()
    + <<override>> Find(pkeys:object[]) : GenderEntity
    + FindAll() : List<GenderEntity>
    + <<override>> Insert(entity:GenderEntity) : int
    + <<override>> Update(entity:GenderEntity) : int
    + <<override>> Delete(entity:GenderEntity) : int
}
class "BaseDao`1"<T> {
}
"BaseDao`1" "<GenderEntity>" <|-- GenderDao
class GetLicenseDao {
    + GetLicenseDao()
    + <<override>> Find(pkeys:object[]) : UserEntity
    + FindAll() : List<GetLicenseEntity>
    + FindWhere(emp_cd:string) : List<GetLicenseEntity>
    + <<override>> Insert(entity:UserEntity) : int
    + <<override>> Update(entity:UserEntity) : int
    + <<override>> Delete(entity:UserEntity) : int
}
class "BaseDao`1"<T> {
}
"BaseDao`1" "<UserEntity>" <|-- GetLicenseDao
class LicenseDao {
    + LicenseDao()
    + <<override>> Find(pkeys:object[]) : LicenseEntity
    + FindAll() : List<LicenseEntity>
    + <<override>> Insert(entity:LicenseEntity) : int
    + <<override>> Update(entity:LicenseEntity) : int
    + <<override>> Delete(entity:LicenseEntity) : int
}
class "BaseDao`1"<T> {
}
"BaseDao`1" "<LicenseEntity>" <|-- LicenseDao
class SectionDao {
    + SectionDao()
    + <<override>> Find(pkeys:object[]) : SectionEntity
    + FindAll() : List<SectionEntity>
    + <<override>> Insert(entity:SectionEntity) : int
    + <<override>> Update(entity:SectionEntity) : int
    + <<override>> Delete(entity:SectionEntity) : int
}
class "BaseDao`1"<T> {
}
"BaseDao`1" "<SectionEntity>" <|-- SectionDao
class Class {
}
class EmployeeEntity {
    + EmpCd : string <<get>> <<set>>
    + LastNm : string <<get>> <<set>>
    + FirstNm : string <<get>> <<set>>
    + LastNmKana : string <<get>> <<set>>
    + FirstNmKana : string <<get>> <<set>>
    + GenderCd : int <<get>> <<set>>
    + SectionCd : string <<get>> <<set>>
}
EmployeeEntity --> "BirthDate" DateTime
EmployeeEntity --> "EmpDate" DateTime
EmployeeEntity --> "Created" DateTime
EmployeeEntity --> "Updated" DateTime
class GenderEntity {
    + GenderCd : int <<get>> <<set>>
    + GenderNm : string <<get>> <<set>>
}
class GetLicenseEntity {
    + EmpCd : string <<get>> <<set>>
    + LicenseCd : string <<get>> <<set>>
    + LicenseNm : string <<get>> <<set>>
    + DisplayLicenseText : string <<get>>
}
GetLicenseEntity --> "GetLicenseDate" DateTime
GetLicenseEntity --> "Created" DateTime
GetLicenseEntity --> "Updated" DateTime
class LicenseEntity {
    + LicenseCd : string <<get>> <<set>>
    + LicenseNm : string <<get>> <<set>>
    + DisplayLicenseText : string <<get>>
}
class SectionEntity {
    + SectionCd : string <<get>> <<set>>
    + SectionNm : string <<get>> <<set>>
}
class UserEntity {
    + UserId : string <<get>> <<set>>
    + Password : string <<get>> <<set>>
}
UserEntity --> "Created" DateTime
UserEntity --> "Updated" DateTime
class ControllerExtensions <<static>> {
    + {static} RedirectToResult(controller:Controller, viewTitle:string, msg:string, caption:string?, buttonView:string?) : RedirectToActionResult
}
class Ctrl <<static>> {
    + {static} Get() : string
}
class EntityHelpers <<static>> {
    + {static} GetTableName() : string
    + {static} GetColumnName(prop:PropertyInfo) : string
    + {static} GetSqlType(prop:PropertyInfo) : SqlDbType
    + {static} MapEntity(reader:SqlDataReader) : T
    - {static} HasColumn(reader:SqlDataReader, columnName:string) : bool
}
class EntityMetaHelper <<static>> {
    + {static} GetTableName() : string
    + {static} GetColumnName(prop:PropertyInfo) : string
    + {static} GetSqlType(prop:PropertyInfo) : SqlDbType
}
class SqlReaderExtensions <<static>> {
    + {static} MapToEntity(reader:SqlDataReader) : T
    + {static} HasColumn(reader:SqlDataReader, columnName:string) : bool
}
class AccountService {
    + Authenticate(userid:string, password:string) : bool
}
class DemoGetLicenseService {
    + GetLicense(empCd:string, licenseCd:string) : GetLicenseEntity
    + GetLicensesByEmpCd(empCd:string) : List<GetLicenseEntity>
    + RegisterLicense(entity:GetLicenseEntity) : bool
    + RemoveLicense(entity:GetLicenseEntity) : bool
    + RemoveLicenses(entities:List<GetLicenseEntity>) : bool
    + GetLicenses() : List<LicenseEntity>
}
class DemoEmployeeService {
    + GetLicenseMenuRows() : List<LicenseMenuRowViewModel>
    + GetEmployees() : List<EmployeeEntity>
    + GetEmployee(empCd:string) : EmployeeEntity
    + RegisterEmployee(entity:EmployeeEntity) : bool
    + GetSections() : List<SectionEntity>
    + GetGenders() : List<GenderEntity>
}
class LicenseMenuRowViewModel {
    + EmpCd : string <<get>> <<set>>
    + LastNm : string <<get>> <<set>>
    + FirstNm : string <<get>> <<set>>
    + LastNmKana : string <<get>> <<set>>
    + FirstNmKana : string <<get>> <<set>>
    + GenderCd : int <<get>> <<set>>
    + GenderNm : string <<get>> <<set>>
    + SectionCd : string <<get>> <<set>>
    + SectionNm : string <<get>> <<set>>
    + DisplaySection : string <<get>>
}
LicenseMenuRowViewModel --> "BirthDate" DateTime
LicenseMenuRowViewModel --> "EmpDate" DateTime
@enduml
